<svg version="1.2" xmlns="http://www.w3.org/2000/svg" viewBox="0 0 46 46" width="46" height="46">
	<title>aurastride-final-logo-1-svg</title>
	<style>
		.s0 { fill: #ffffff } 
	</style>
	<g id="Layer">
		<path id="Layer" fill-rule="evenodd" class="s0" d="m46 23c0 12.7-10.3 23-23 23-12.7 0-23-10.3-23-23 0-12.7 10.3-23 23-23 12.7 0 23 10.3 23 23zm-35.3-12h24.6c-3.1-3.2-7.5-5.2-12.3-5.2-4.8 0-9.2 2-12.3 5.2zm9.6 29l-13.4-23.1c-0.7 1.9-1.1 3.9-1.1 6.1 0 8.5 6.3 15.6 14.5 17zm2.7-7l9.3-16.1h-18.6c0 0 9.3 16.1 9.3 16.1zm17.2-10q0-0.8-0.1-1.6-0.1-0.8-0.2-1.5-0.2-0.8-0.4-1.6-0.2-0.7-0.5-1.4l-13.3 23.1c8.2-1.4 14.5-8.5 14.5-17zm35.9-11.4h6.8v22.8h-6.8v-2.1c-1.5 1.7-3.7 2.8-6.8 2.8-6 0-10.9-5.3-10.9-12.1 0-6.8 4.9-12.1 10.9-12.1 3 0 5.3 1.1 6.8 2.8 0 0 0-2.1 0-2.1zm0 11.4c0-3.5-2.3-5.6-5.4-5.6-3.2 0-5.5 2.2-5.5 5.6 0 3.4 2.3 5.6 5.5 5.6 3.1 0 5.4-2.2 5.4-5.6zm26.7 1v-12.4h6.8v22.8h-6.8v-2.2c-1.3 1.7-3.6 2.8-6.6 2.8-4.6 0-8.5-3.3-8.5-9.4v-14h6.8v13c0 2.8 1.8 4.1 4 4.1 2.5 0 4.2-1.4 4.2-4.7zm25.5-12.9v7.8c-2.8-0.5-6.8 0.7-6.8 5.2v10.3h-6.8v-22.8h6.8v4c0.9-3 4-4.5 6.8-4.5zm19.2 0.5h6.8v22.8h-6.8v-2.1c-1.5 1.7-3.8 2.8-6.8 2.8-6 0-10.9-5.3-10.9-12.1 0-6.8 4.9-12.1 10.9-12.1 3 0 5.2 1.1 6.8 2.8 0 0 0-2.1 0-2.1zm-0.1 11.4c0-3.5-2.3-5.6-5.4-5.6-3.1 0-5.4 2.2-5.4 5.6 0 3.4 2.3 5.6 5.4 5.6 3.2 0 5.5-2.2 5.4-5.6zm29.4 4.5c0 5.3-4.5 7.5-9.5 7.5-4.6 0-8-1.7-9.8-5.4l5.9-3.4c0.6 1.7 1.9 2.7 3.9 2.7q2.5 0 2.5-1.4c0-2.5-11.2-1.2-11.2-9.1 0-5 4.1-7.5 8.9-7.5 3.7 0 7 1.7 8.9 4.9l-5.8 3.2c-0.7-1.2-1.6-2-3.1-2-1.2 0-1.9 0.4-1.9 1.2 0 2.6 11.2 0.9 11.2 9.3zm11.4-15.9h4.8v6.5h-4.8v8.2c0 1.9 1.7 2.1 4.8 1.9v6.2c-9 0.9-11.6-1.8-11.6-8.2v-8h-3.7v-6.6h3.7v-4.4l6.8-2zm22.8-0.5v7.8c-2.8-0.5-6.9 0.7-6.9 5.2v10.3h-6.8v-22.8h6.8v4c0.9-3 4-4.5 6.9-4.5zm3.2 0.5h6.8v22.8h-6.8zm7.5-6.1c0 2.3-1.9 4.1-4.1 4.1-2.2 0-4.1-1.8-4.1-4.1 0-2.2 1.9-4.1 4.1-4.1 2.2 0 4.1 1.9 4.1 4.1zm20.9-3h6.9v32h-6.9v-2.1c-1.5 1.7-3.7 2.7-6.8 2.7-5.9 0-10.9-5.2-10.9-12 0-6.9 4.9-12.1 10.9-12.1 3.1 0 5.3 1.1 6.8 2.8zm0 20.5c0-3.4-2.3-5.5-5.4-5.5-3.1 0-5.4 2.1-5.4 5.5 0 3.5 2.3 5.6 5.4 5.6 3.1 0 5.4-2.1 5.4-5.6zm34.2 2.8h-16.2c0.9 2.4 3 3.2 5.5 3.2 1.9 0 3.5-0.7 4.4-1.7l5.5 3.1c-2.3 3.1-5.6 4.7-10 4.7-7.8 0-12.6-5.2-12.6-12.1 0-6.8 4.9-12 12.1-12 6.7 0 11.6 5.1 11.6 12q0 1.5-0.3 2.8zm-6.5-5.1c-0.7-2.7-2.8-3.6-4.9-3.6-2.6 0-4.3 1.2-4.9 3.6 0 0 9.8 0 9.8 0z"/>
	</g>
</svg>